<svg aria-hidden="true" style="position: absolute; width: 0; height: 0; overflow: hidden;" version="1.1" xmlns="http://www.w3.org/2000/svg" xmlns:xlink="http://www.w3.org/1999/xlink">
<defs>
<symbol id="icon-documents" viewBox="0 0 20 20">
<path d="M19.398 7.415l-7.444-1.996-1.303-4.861c-0.109-0.406-0.545-0.642-0.973-0.529l-9.076 2.432c-0.428 0.114-0.686 0.538-0.577 0.944l3.23 12.051c0.109 0.406 0.544 0.643 0.971 0.527l3.613-0.967-0.492 1.838c-0.109 0.406 0.149 0.83 0.577 0.943l8.11 2.174c0.428 0.115 0.862-0.121 0.972-0.529l2.97-11.084c0.108-0.406-0.15-0.83-0.578-0.943zM1.633 3.631l7.83-2.096 2.898 10.818-7.83 2.096-2.898-10.818zM15.678 18.463l-6.814-1.863 0.536-2.002 3.901-1.047c0.428-0.113 0.688-0.537 0.578-0.943l-1.508-5.627 5.947 1.631-2.64 9.851z"></path>
</symbol>
<symbol id="icon-key" viewBox="0 0 20 20">
<path d="M17.691 4.725c-0.503-2.977-3.22-4.967-6.069-4.441s-5.256 2.816-4.753 5.795c0.107 0.641 0.408 1.644 0.763 2.365l-5.175 7.723c-0.191 0.285-0.299 0.799-0.242 1.141l0.333 1.971c0.058 0.342 0.372 0.572 0.7 0.514l1.516-0.281c0.328-0.059 0.744-0.348 0.924-0.639l2.047-3.311 0.018-0.022 1.386-0.256 2.39-3.879c0.785 0.139 1.912 0.092 2.578-0.031 2.848-0.526 4.087-3.67 3.584-6.649zM15.166 6.252c-0.784 1.17-1.584 0.346-2.703-0.475-1.119-0.818-2.135-1.322-1.352-2.492s2.326-1.455 3.447-0.635c1.12 0.819 1.391 2.432 0.608 3.602z"></path>
</symbol>
<symbol id="icon-location-pin" viewBox="0 0 20 20">
<path d="M10 2.009c-2.762 0-5 2.229-5 4.99 0 4.774 5 11 5 11s5-6.227 5-11c0-2.76-2.238-4.99-5-4.99zM10 9.76c-1.492 0-2.7-1.209-2.7-2.7s1.208-2.7 2.7-2.7c1.49 0 2.699 1.209 2.699 2.7s-1.209 2.7-2.699 2.7z"></path>
</symbol>
<symbol id="icon-rocket" viewBox="0 0 20 20">
<path d="M11.933 13.069c0 0 7.059-5.094 6.276-10.924-0.017-0.127-0.059-0.213-0.112-0.268-0.054-0.055-0.137-0.098-0.263-0.115-5.697-0.801-10.674 6.422-10.674 6.422-4.318-0.517-4.004 0.344-5.974 5.076-0.377 0.902 0.234 1.213 0.904 0.959 0.67-0.252 2.148-0.811 2.148-0.811l2.59 2.648c0 0-0.546 1.514-0.793 2.199s0.055 1.311 0.938 0.926c4.624-2.016 5.466-1.694 4.96-6.112zM12.942 7.153c-0.598-0.613-0.598-1.604 0-2.217 0.598-0.611 1.567-0.611 2.166 0s0.598 1.603 0 2.217c-0.599 0.611-1.569 0.611-2.166 0z"></path>
</symbol>
<symbol id="icon-traffic-cone" viewBox="0 0 20 20">
<path d="M10 12.078c2.39 0 4.392-0.812 4.513-1.873-0.356-0.996-0.744-2.084-1.125-3.152-0.264 0.761-1.725 1.301-3.388 1.301s-3.124-0.54-3.388-1.301c-0.381 1.068-0.769 2.156-1.124 3.152 0.121 1.061 2.122 1.873 4.512 1.873zM10 5.373c1.124 0 2.167-0.348 2.473-0.889-0.421-1.182-0.782-2.197-1.011-2.836-0.152-0.427-0.841-0.648-1.462-0.648s-1.31 0.221-1.462 0.648c-0.228 0.639-0.59 1.654-1.011 2.836 0.306 0.541 1.35 0.889 2.473 0.889zM18.78 13.066l-3.755-1.514 0.433 1.207c-0.022 1.279-2.504 2.299-5.458 2.299s-5.437-1.019-5.458-2.299l0.433-1.207-3.755 1.514c-1.053 0.424-1.098 1.209-0.098 1.744l7.062 3.787c0.998 0.535 2.633 0.535 3.632 0l7.063-3.787c0.999-0.535 0.954-1.32-0.099-1.744z"></path>
</symbol>
<symbol id="icon-dribbble" viewBox="0 0 20 20">
<path d="M9.565 7.421c-1.358-2.414-2.811-4.383-2.917-4.528-2.191 1.036-3.826 3.055-4.337 5.487 0.206 0.004 3.482 0.043 7.254-0.959zM10.543 10.061c0.102-0.033 0.206-0.064 0.309-0.094-0.197-0.447-0.412-0.895-0.637-1.336-4.046 1.212-7.928 1.124-8.065 1.12-0.003 0.084-0.007 0.166-0.007 0.25 0 2.019 0.763 3.861 2.016 5.252l-0.005-0.006c0 0 2.15-3.814 6.389-5.186zM5.171 16.194v-0.004c-0.058-0.045-0.12-0.086-0.178-0.135 0.106 0.085 0.178 0.139 0.178 0.139zM8.118 2.372c-0.007 0.002-0.015 0.004-0.015 0.004 0.006-0.002 0.014-0.002 0.014-0.002l0.001-0.002zM15.189 4.104c-1.384-1.218-3.199-1.961-5.189-1.961-0.639 0-1.258 0.078-1.852 0.221 0.12 0.16 1.595 2.119 2.938 4.584 2.962-1.109 4.081-2.812 4.103-2.844zM10 19.2c-5.080 0-9.199-4.119-9.199-9.199-0.001-5.082 4.118-9.201 9.199-9.201s9.2 4.119 9.2 9.201c0 5.080-4.118 9.199-9.2 9.199zM11.336 11.286c-4.611 1.607-6.134 4.838-6.165 4.904 1.334 1.041 3.006 1.666 4.828 1.666 1.088 0 2.125-0.221 3.067-0.621-0.116-0.689-0.573-3.096-1.679-5.967-0.016 0.006-0.033 0.012-0.051 0.018zM11.69 8.12c0.184 0.373 0.358 0.754 0.523 1.139 0.059 0.135 0.114 0.272 0.17 0.406 2.713-0.342 5.385 0.238 5.473 0.256-0.019-1.863-0.686-3.572-1.787-4.912-0.018 0.023-1.279 1.843-4.379 3.111zM12.861 10.905c1.031 2.836 1.449 5.142 1.529 5.611 1.764-1.191 3.018-3.080 3.367-5.27-0.156-0.050-2.356-0.747-4.896-0.341z"></path>
</symbol>
</defs>
</svg>
